<?xml version="1.0" encoding="UTF-8"?>
<svg xmlns="http://www.w3.org/2000/svg" id="a" width="865.76" height="682.89" viewBox="0 0 865.76 682.89">
  <g>
    <g>
      <path d="M518.14,481.37c1.46,2.93,19.04,20.5,19.04,20.5h15.08l-5.05-20.49h-29.07Z" fill="#fff"></path>
      <path d="M552.9,502.37h-15.93l-.15-.15c-.72-.72-17.65-17.66-19.13-20.63l-.36-.72h30.27s5.3,21.5,5.3,21.5Zm-15.52-1h14.24l-4.81-19.49h-27.76c2.49,3.39,12.72,13.88,18.33,19.49Z"></path>
    </g>
    <g>
      <path d="M552.55,481.37c1.46,2.93,19.04,20.5,19.04,20.5h15.08l-5.05-20.49h-29.07Z" fill="#fff"></path>
      <path d="M587.31,502.37h-15.93l-.15-.15c-.72-.72-17.65-17.66-19.13-20.63l-.36-.72h30.27s5.3,21.5,5.3,21.5Zm-15.52-1h14.24l-4.81-19.49h-27.76c2.49,3.39,12.72,13.88,18.33,19.49Z"></path>
    </g>
    <g>
      <path d="M174.47,481.37c-1.46,2.93-19.04,20.5-19.04,20.5h-15.08s5.05-20.49,5.05-20.49h29.07Z" fill="#fff"></path>
      <path d="M155.64,502.37h-15.93l5.3-21.49h30.27s-.36,.71-.36,.71c-1.48,2.97-18.41,19.91-19.13,20.63l-.15,.15Zm-14.65-1h14.24c5.61-5.61,15.84-16.1,18.33-19.5h-27.76s-4.81,19.5-4.81,19.5Z"></path>
    </g>
    <g>
      <path d="M140.06,481.37c-1.46,2.93-19.04,20.5-19.04,20.5h-15.08s5.05-20.49,5.05-20.49h29.07Z" fill="#fff"></path>
      <path d="M121.23,502.37h-15.93l5.3-21.49h30.27s-.36,.71-.36,.71c-1.48,2.97-18.41,19.91-19.13,20.63l-.15,.15Zm-14.65-1h14.24c5.61-5.61,15.84-16.1,18.33-19.5h-27.76s-4.81,19.5-4.81,19.5Z"></path>
    </g>
    <g>
      <path d="M94.23,485.03S-3.88,290.28,38.58,263.92c0,0,9.52-8.79,38.8,3.66l1.11-42.52c.3-11.34,8.99-20.68,20.29-21.78,72.59-7.07,331.42-34,543.18,7.2,5.92,1.15,9.65,7.07,8.15,12.91l-10.91,42.53s43.68-3.47,4.87,96.84l-50.05,121.13-499.8,1.14Z" fill="#fff"></path>
      <path d="M93.92,485.53l-.14-.28c-.25-.49-24.76-49.31-43.77-100.72-25.6-69.24-29.53-109.96-11.69-121.04,.32-.31,9.87-8.67,38.59,3.34l1.09-41.79c.3-11.57,9.22-21.15,20.74-22.27l5.71-.56c81.87-8.02,331-32.43,537.61,7.77,3,.58,5.54,2.33,7.18,4.91,1.64,2.59,2.12,5.65,1.36,8.62l-10.75,41.9c2.24,.04,9.47,.74,14.75,7.82,7.4,9.93,11.67,33.56-10.06,89.71l-50.18,121.45h-.33s-500.1,1.14-500.1,1.14Zm-43.45-224.09c-8.25,0-11.5,2.8-11.55,2.85-40.94,25.42,51.44,211.87,55.61,220.24l499.15-1.14,49.92-120.82c21.54-55.69,17.44-78.98,10.2-88.72-5.94-7.99-14.49-7.44-14.57-7.43l-.7,.05,11.08-43.21c.69-2.7,.25-5.48-1.24-7.83-1.48-2.35-3.8-3.93-6.52-4.46-206.47-40.17-455.49-15.77-537.32-7.75l-5.71,.56c-11.02,1.07-19.55,10.23-19.84,21.3l-1.13,43.25-.68-.29c-12.03-5.11-20.71-6.6-26.72-6.6Z"></path>
    </g>
    <path d="M545.47,333.24H189.68c-.28,0-.5-.22-.5-.5s.22-.5,.5-.5h355.79c.28,0,.5,.22,.5,.5s-.22,.5-.5,.5Z"></path>
    <path d="M183.55,418.17c-.27,0-.49-.22-.5-.49,0-.28,.21-.5,.49-.51,2.74-.06,274.71-5.83,350-2.93,.28,.01,.49,.24,.48,.52-.01,.28-.21,.52-.52,.48-75.25-2.89-347.2,2.87-349.94,2.93h-.01Z"></path>
    <path d="M157.92,475.81c-.24,0-.46-.18-.49-.43l-13.18-89.12c-7.55-49.43-23.62-77.77-35.77-92.83-13.13-16.27-24.57-20.94-24.69-20.99-.26-.1-.38-.39-.28-.65,.1-.26,.39-.38,.65-.28,.12,.05,11.81,4.81,25.1,21.29,12.23,15.16,28.4,43.66,35.98,93.31l13.18,89.13c.04,.27-.15,.53-.42,.57-.02,0-.05,0-.07,0Z"></path>
    <path d="M99.59,283.56c-.24,0-.45-.17-.49-.41l-8.27-44.06c-.78-4.14,.35-8.36,3.09-11.56,2.74-3.2,6.75-4.95,10.94-4.84,67.77,2,298.84,7.99,426.77,.89,11.65-.65,23.48-2.78,35.17-6.34,16.07-4.9,37.82-8.6,50.14,1.63,.34,.21,9.31,6.39,.16,38.59-.08,.26-.35,.42-.62,.34-.27-.08-.42-.35-.34-.62,8.9-31.31,.3-37.46,.21-37.52-12.66-10.5-36.29-5.43-49.26-1.48-11.76,3.58-23.67,5.73-35.4,6.38-127.97,7.11-359.07,1.12-426.85-.89-3.91-.1-7.61,1.52-10.15,4.49-2.54,2.97-3.59,6.88-2.86,10.73l8.27,44.06c.05,.27-.13,.53-.4,.58-.03,0-.06,0-.09,0Z"></path>
    <path d="M146.94,306.15c-.23,0-.44-.16-.49-.4-8.65-42.55-41.22-75.56-41.55-75.89-.2-.2-.2-.51,0-.71,.2-.19,.51-.19,.71,0,.33,.33,33.11,33.55,41.82,76.4,.05,.27-.12,.53-.39,.59-.03,0-.07,.01-.1,.01Z"></path>
    <g>
      <path d="M206.24,312.97l-42.13-9.36c-3.31-.74-6.66-1.24-10.03-1.52-13.87-1.13-47.18-1.89-51.8,16,0,0-6.59,19.04,13.91,46.86l62.96,96.64s24.89-18.3,44.66-22.7l-46.86-76.14s32.41-.73,104.06,7.69c0,0,28.46,5.8,33.58-1.67l2.2,81.84s1.46-10.98,30.02-14.64c0,0,13.91-2.2,21.96,5.86,0,0-5.13-48.53,0-78.08,0,0,7.32-51.51-3.66-65.42,0,0-15.21-23.11-40.55-7.53l-54.63,9.73-38.8,15.53-24.89-3.09Z" fill="#9be4ba"></path>
      <path d="M179.02,462.32l-63.25-97.09c-20.4-27.69-14.03-47.1-13.96-47.29,4.69-18.19,38.15-17.49,52.31-16.34,3.38,.27,6.78,.79,10.1,1.53l42.11,9.36,24.74,3.07,38.78-15.51,54.54-9.71c25.42-15.56,40.99,7.5,41.15,7.73,10.96,13.88,4.04,63.66,3.74,65.77-5.06,29.15-.05,77.47,0,77.96l.15,1.41-1-1c-7.79-7.78-21.4-5.74-21.53-5.72-27.73,3.56-29.58,14.11-29.6,14.22l-1-.06-2.16-80.58c-6.91,6.17-32.1,1.12-33.22,.89-64.4-7.56-97.44-7.73-103.07-7.69l46.76,75.99-.69,.15c-19.44,4.32-44.23,22.43-44.47,22.61l-.43,.31Zm-37.05-160.22c-15.49,0-35.74,2.67-39.21,16.13-.08,.23-6.25,19.18,13.83,46.44l62.7,96.23c3.35-2.4,25.63-18.03,43.74-22.32l-46.95-76.29,.87-.02c.32,0,33.26-.64,104.13,7.69,.32,.06,28.23,5.66,33.11-1.46l.87-1.27,2.17,81c2.07-3.53,8.67-10.06,29.52-12.74,.54-.09,13.19-1.98,21.4,5.09-.76-7.98-4.47-50.33,.14-76.9,.07-.5,7.16-51.44-3.56-65.03-.64-.96-15.27-22.56-39.9-7.42l-.17,.07-54.58,9.72-38.88,15.56-25.07-3.11-42.13-9.36c-3.28-.73-6.63-1.24-9.97-1.51-3.21-.26-7.42-.5-12.06-.5Z"></path>
    </g>
    <g>
      <path d="M292.31,148.85s-9.92,1.58-9.19,16.23l-21.96-6.59s-13.7-3.68-27.35,2.19c0,0-33.42,14.65-50.99,22.71,0,0-21.23,5.86-19.77,27.82,0,0,2.2,13.91,13.91,15.38,0,0,7.32,0,14.64,1.46,0,0,3.84,.82,8.47,.62,3.4-.14,6.64-1.48,9.11-3.83,2-1.91,4.04-4.59,4.39-7.78l19.77-5.86v5.86l-9.86,33.1c-.24,.81-.58,1.59-1.01,2.31-1.99,3.31-8.04,14.39-7.73,26.19,.07,2.71-.44,5.39-1.4,7.92-2.7,7.13-7.62,21.05-7.09,26.4,0,0,35.88,28.43,75.73,14.35,2.97-1.05,5.61-2.87,7.7-5.22,6.9-7.74,24.64-26.77,37.37-32.55,0,0,23.43,10.98,33.68-5.86,0,0,14.64-36.61,11.71-67.36,0,0,0-15.38-16.11-23.43l-16.11-8.79s1.46-5.52-1.46-10.08c0,0,7.13-4.57,3.93-13.35l-50.39-11.83Z" fill="#009e64"></path>
      <path d="M259.13,331.7c-29.63,0-52.9-18.1-53.19-18.33l-.17-.13-.02-.21c-.54-5.38,4.23-18.99,7.12-26.62,.97-2.58,1.43-5.18,1.37-7.73-.32-11.97,5.89-23.28,7.8-26.46,.41-.68,.73-1.41,.96-2.19l9.84-33.03v-5.12l-18.81,5.57c-.39,2.67-1.9,5.27-4.5,7.75-2.52,2.41-5.87,3.82-9.43,3.97-4.63,.2-8.43-.6-8.59-.63-7.18-1.44-14.47-1.45-14.54-1.45-12.01-1.5-14.38-15.65-14.41-15.8-1.48-22.16,19.91-28.32,20.13-28.38,17.3-7.94,50.59-22.54,50.92-22.68,13.66-5.87,27.54-2.25,27.68-2.21l21.31,6.39c-.39-14.27,9.53-16.02,9.64-16.04l.1-.02,50.74,11.91,.09,.25c2.84,7.81-2.24,12.49-3.73,13.65,2.3,3.95,1.64,8.37,1.37,9.7l15.78,8.6c16.18,8.09,16.37,23.71,16.37,23.87,2.9,30.47-11.6,67.18-11.75,67.54-9.87,16.23-31.73,7.27-34.14,6.22-12.59,5.84-30.05,24.54-37,32.34-2.18,2.45-4.92,4.3-7.91,5.36-7.89,2.79-15.66,3.91-23.02,3.91Zm-52.4-18.99c2.72,2.07,37.34,27.47,75.09,14.14,2.84-1,5.43-2.76,7.5-5.08,7.03-7.89,24.75-26.87,37.53-32.68l.21-.1,.21,.1c.23,.11,23.14,10.59,33.04-5.66,.11-.29,14.53-36.78,11.64-67.05,0-.2-.21-15.21-15.83-23.03l-16.47-8.98,.1-.38c.01-.05,1.37-5.37-1.4-9.69l-.27-.42,.42-.27c.27-.18,6.62-4.39,3.82-12.51l-50.02-11.74c-1.04,.21-9.35,2.28-8.68,15.69l.04,.71-22.64-6.79c-.12-.03-13.69-3.56-27.01,2.17-.33,.15-33.61,14.74-50.98,22.7-.28,.08-20.9,6.04-19.48,27.33,.02,.09,2.28,13.51,13.47,14.91,.01,0,7.39,.01,14.68,1.47,.04,0,3.86,.8,8.35,.61,3.32-.14,6.44-1.45,8.78-3.69,2.53-2.41,3.96-4.93,4.24-7.47l.04-.33,20.73-6.14-.02,6.67-9.86,33.1c-.26,.86-.61,1.68-1.06,2.42-1.88,3.12-7.97,14.21-7.66,25.92,.07,2.69-.41,5.42-1.43,8.11-2.27,6-7.46,20.42-7.08,25.96Z"></path>
    </g>
    <g>
      <path d="M276.96,250.78s-4.82,9.48,1.77,11.67c0,0,4.39,2.93,8.05-5.13l-9.82-6.55Z"></path>
      <path d="M280.68,263.48c-1.13,0-1.94-.43-2.17-.56-1.6-.55-2.7-1.54-3.28-2.96-1.54-3.76,1.17-9.17,1.28-9.39l.25-.5,10.64,7.1-.18,.39c-1.47,3.24-3.25,5.18-5.29,5.76-.45,.13-.87,.18-1.26,.18Zm-3.51-11.95c-.61,1.39-2.13,5.33-1.01,8.05,.48,1.17,1.37,1.96,2.73,2.41l.12,.06s1.15,.73,2.68,.29c1.64-.48,3.17-2.14,4.46-4.82l-8.98-5.99Z"></path>
    </g>
    <path d="M356.6,264.52c-.13,0-.26-.05-.36-.15-7.63-7.78-39.11-20.36-39.43-20.49-14.98-9.38-22.72-10.94-22.8-10.96-.27-.05-.45-.31-.4-.58,.05-.27,.31-.45,.58-.4,.32,.06,7.98,1.59,23.06,11.05,1.22,.48,31.92,12.74,39.7,20.68,.19,.2,.19,.51,0,.71-.1,.1-.22,.14-.35,.14Z"></path>
    <path d="M331.2,250.01c-.07,0-.14-.02-.21-.05-.25-.12-.36-.41-.24-.67l10.06-21.47c.12-.25,.42-.36,.67-.24,.25,.12,.36,.41,.24,.67l-10.06,21.47c-.08,.18-.27,.29-.45,.29Z"></path>
    <path d="M327.05,290.05s-.07,0-.1-.01c-17.48-3.64-49.66-27.67-49.98-27.91-.22-.17-.27-.48-.1-.7,.17-.22,.48-.26,.7-.1,.32,.24,32.33,24.14,49.59,27.73,.27,.06,.44,.32,.39,.59-.05,.24-.26,.4-.49,.4Z"></path>
    <g>
      <path d="M288.98,175.33s-1.39,22.07,3.33,30.07c0,0,12.04-7.38,22.29-19.09,0,0-15.38,0-25.63-10.98Z" fill="#fff"></path>
      <path d="M292.14,206.09l-.26-.44c-4.75-8.04-3.46-29.45-3.4-30.36l.07-1.16,.79,.85c9.99,10.7,25.11,10.82,25.26,10.82h1.1l-.73,.83c-10.18,11.64-22.29,19.11-22.41,19.19l-.43,.27Zm-2.72-29.59c-.2,4.51-.64,21.16,3.07,28.19,2.2-1.41,12.22-8.09,21.05-17.93-3.59-.24-15.45-1.67-24.12-10.26Z"></path>
    </g>
    <path d="M242.12,312.74s-.08,0-.12-.02c-.27-.07-.43-.34-.36-.61,1.15-4.59,2.87-10.03,5.11-16.18,1.67-4.58,3.73-9.19,6.29-14.08,2.33-4.45,3.98-8.56,3.99-8.6,2.9-11.62,8.8-19.09,8.86-19.16,3.87-4.3,8.29-13.77,11.32-20.96,1.93-4.59,4.29-8.85,7-12.65,4.59-6.44,7.6-15.16,7.63-15.24,.09-.26,.37-.4,.63-.31,.26,.09,.4,.37,.31,.63-.03,.09-3.08,8.95-7.76,15.5-2.67,3.74-4.98,7.93-6.89,12.45-3.06,7.26-7.54,16.83-11.48,21.22-.04,.05-5.81,7.36-8.67,18.82-.04,.11-1.7,4.26-4.06,8.76-2.54,4.86-4.58,9.42-6.24,13.96-2.23,6.12-3.94,11.53-5.08,16.08-.06,.23-.26,.38-.49,.38Z"></path>
    <g>
      <rect x="211.05" y="193.65" width="59.81" height="26.38" rx="4.92" ry="4.92" transform="translate(98.89 -77.16) rotate(22.78)" fill="#f7ce21"></rect>
      <path d="M260.78,229.55c-.7,0-1.41-.14-2.09-.42l-46.06-19.35c-2.76-1.16-4.06-4.34-2.9-7.1l6.4-15.24c.56-1.34,1.61-2.37,2.95-2.92,1.34-.55,2.82-.54,4.15,.02l46.06,19.35c1.34,.56,2.37,1.61,2.92,2.95,.55,1.34,.54,2.82-.02,4.15l-6.4,15.24c-.87,2.07-2.89,3.32-5.01,3.32Zm-1.71-1.34c2.25,.94,4.85-.12,5.79-2.37l6.4-15.24c.46-1.09,.46-2.29,.02-3.39-.45-1.09-1.29-1.95-2.38-2.41l-46.06-19.35c-1.09-.46-2.29-.46-3.39-.02-1.09,.45-1.95,1.29-2.41,2.38l-6.4,15.24c-.94,2.25,.12,4.85,2.37,5.79l46.06,19.35Z"></path>
    </g>
    <path d="M264.08,207.31c-.06,0-.13-.01-.19-.04l-43.93-18.3c-.25-.11-.38-.4-.27-.65,.11-.26,.4-.38,.65-.27l43.93,18.3c.25,.11,.38,.4,.27,.65-.08,.19-.27,.31-.46,.31Z"></path>
    <path d="M314.6,369.27c-.28,0-.5-.22-.5-.5v-45.18c0-.28,.22-.5,.5-.5s.5,.22,.5,.5v45.18c0,.28-.22,.5-.5,.5Z"></path>
    <path d="M176.96,363.26c-.17,0-.34-.09-.43-.25l-19.04-32.95c-.14-.24-.06-.54,.18-.68,.24-.14,.54-.06,.68,.18l19.04,32.95c.14,.24,.06,.54-.18,.68-.08,.05-.17,.07-.25,.07Z"></path>
    <path d="M171.57,353.93s-.02,0-.03,0c-.28-.01-.49-.25-.47-.53,.45-8.39-4.05-20.71-4.1-20.84-.1-.26,.04-.55,.3-.64,.26-.1,.55,.04,.64,.3,.19,.51,4.62,12.63,4.16,21.24-.01,.27-.23,.47-.5,.47Z"></path>
    <g>
      <path d="M368.65,444c-.67,3.86-4.06,11.98-20.37,16.87l5.22-25.09s7.96,.17,13.8,4.74c1.06,.83,1.58,2.16,1.35,3.48Z"></path>
      <path d="M347.62,461.59l5.47-26.32h.42c.33,.02,8.2,.23,14.1,4.85,1.21,.94,1.79,2.46,1.53,3.96h0c-.75,4.35-4.45,12.38-20.71,17.26l-.8,.24Zm6.28-25.29l-4.96,23.84c15.07-4.74,18.51-12.17,19.21-16.23,.2-1.13-.25-2.29-1.17-3-4.89-3.83-11.4-4.5-13.09-4.61Z"></path>
    </g>
    <g>
      <path d="M348.2,468.11l3.01,3.01-10.98,.73c-5.86,0-11.03,8.79-11.03,8.79-5.91,7.32-14.59,0-14.59,0,0-2.93,2.2-12.45,2.2-12.45,1.46-5.86,3.74-23.04,3.74-23.04,11.79-9.86,32.96-9.37,32.96-9.37l-6.27,29.04c-.26,1.19,.11,2.43,.97,3.29Z" fill="#ffc0c0"></path>
      <path d="M322.78,484.39c-4.44,0-8.32-3.23-8.5-3.37l-.18-.15v-.23c0-2.95,2.12-12.17,2.21-12.56,1.44-5.77,3.71-22.82,3.73-22.99l.03-.19,.15-.12c11.79-9.87,33.07-9.49,33.29-9.49h.6s-6.4,29.64-6.4,29.64c-.22,1.03,.09,2.09,.84,2.84l3.79,3.79-12.08,.81c-5.54,0-10.58,8.46-10.64,8.54-1.68,2.09-3.69,3.24-6,3.46-.28,.03-.57,.04-.85,.04Zm-7.67-3.99c.85,.66,4.58,3.33,8.43,2.96,2.03-.2,3.81-1.22,5.27-3.03,.17-.31,5.35-8.97,11.42-8.97l9.85-.66-2.23-2.23c-.99-.99-1.4-2.39-1.11-3.75l6.14-28.43c-3.52,.02-21.45,.55-31.87,9.13-.26,1.92-2.36,17.42-3.73,22.9-.02,.08-2.07,9-2.18,12.09Z"></path>
    </g>
    <g>
      <path d="M379.52,500.62c-2.85,3.05-9.69,3.44-9.69,3.44h-29.6c-27.09,0-27.09-3.66-27.09-3.66l1.46-19.77s8.68,7.32,14.59,0c0,0,5.18-8.79,11.03-8.79l10.98-.73c4.96,6.2,22.51,19.75,27.78,23.75,1.83,1.39,2.1,4.08,.53,5.75Z" fill="#009e64"></path>
      <path d="M340.23,504.57c-26.26,0-27.59-3.47-27.59-4.16l1.54-20.78,.75,.63s4.25,3.52,8.61,3.1c2.03-.2,3.81-1.22,5.27-3.03,.17-.31,5.35-8.97,11.42-8.97l11.21-.75,.16,.2c4.92,6.15,22.44,19.67,27.69,23.67,1,.76,1.63,1.91,1.74,3.17,.1,1.23-.31,2.44-1.14,3.33h0c-2.95,3.16-9.74,3.58-10.03,3.6h-29.63Zm-26.58-4.21c.2,.36,2.58,3.22,26.58,3.22h29.6s6.65-.41,9.33-3.28h0c.65-.69,.96-1.6,.88-2.56-.08-.97-.57-1.87-1.35-2.46-5.22-3.97-22.5-17.31-27.7-23.63l-10.72,.72c-5.54,0-10.58,8.46-10.64,8.54-1.68,2.09-3.69,3.24-6,3.46-3.69,.35-7.11-1.71-8.59-2.76l-1.39,18.76Z"></path>
    </g>
    <path d="M350.48,488.46c-.2,0-.38-.12-.46-.31-.11-.25,.01-.55,.27-.65,.22-.09,5.5-2.22,18.96-.76,.27,.03,.47,.28,.44,.55-.03,.28-.28,.47-.55,.44-13.16-1.42-18.42,.67-18.47,.69-.06,.03-.13,.04-.19,.04Z"></path>
    <g>
      <path d="M234.8,455.74l-13.91,8.05c-5.13,2.2-8.79,.73-8.79,.73l-7.97-2.93h0s-7.48-11.19-7.48-11.19c11.64-7.53,27.17-11.5,27.17-11.5l10.98,16.84Z" fill="#ffc0c0"></path>
      <path d="M215.25,465.51c-2.01,0-3.25-.48-3.34-.51l-8.2-3.12-7.76-11.61,.43-.28c11.58-7.48,27.16-11.53,27.32-11.57l.35-.09,11.47,17.58-14.37,8.32c-2.31,.99-4.33,1.28-5.88,1.28Zm-10.8-4.32l7.82,2.87s3.56,1.36,8.42-.72l13.4-7.76-10.5-16.09c-2.32,.63-15.82,4.46-26.25,11.07l7.11,10.63Z"></path>
    </g>
    <g>
      <path d="M240.73,467.62c1.17,2.34,.22,5.18-2.12,6.35l-13.34,6.67c-11.71,5.13-16.11,14.64-16.11,14.64-3.66,8.05-11.77,7.32-11.77,7.32h-23.51c-2.13,0-3.69-2.12-2.94-4.11,2.18-5.84,12.59-11.99,12.59-11.99l11.71-19.77c4.27-8.54,8.62-5.32,8.87-5.13h0s7.97,2.94,7.97,2.94c0,0,3.66,1.46,8.79-.73l13.91-8.05,5.94,11.87Z" fill="#009e64"></path>
      <path d="M197.86,503.11c-.31,0-.49-.01-.5-.02h-23.47c-1.19,0-2.31-.58-2.99-1.57-.67-.96-.82-2.14-.42-3.22,2.11-5.68,11.5-11.46,12.7-12.18l11.65-19.66c1.73-3.47,3.73-5.5,5.92-6.01,1.88-.43,3.26,.43,3.63,.69l7.9,2.9s3.56,1.36,8.42-.72l14.32-8.29,6.17,12.35c.63,1.25,.73,2.67,.28,4-.44,1.33-1.38,2.4-2.63,3.03l-13.33,6.67c-11.41,4.99-15.83,14.31-15.88,14.41-3.23,7.1-9.89,7.62-11.76,7.62Zm3.92-41.77c-.25,0-.53,.03-.81,.09-1.85,.43-3.67,2.33-5.26,5.51l-11.8,19.91-.11,.07c-.1,.06-10.29,6.13-12.38,11.74-.29,.77-.18,1.61,.3,2.3,.5,.71,1.31,1.14,2.17,1.14h23.51c.36,.03,7.84,.59,11.31-7.03,.18-.4,4.61-9.75,16.36-14.89l13.31-6.66c1.01-.51,1.77-1.38,2.12-2.45,.36-1.07,.28-2.22-.23-3.23l-5.7-11.4-13.45,7.79c-5.31,2.28-9.06,.83-9.22,.76l-8.11-3.02c-.09-.07-.87-.63-2.02-.63Z"></path>
    </g>
    <g>
      <path d="M179.15,461.6s-1.08,5.86,21.06-5.86l-3.57-5.34s-10.9,6.07-17.49,11.19Z"></path>
      <path d="M181.4,463.57c-.9,0-1.59-.17-2.06-.52-.67-.49-.74-1.19-.67-1.53l.04-.19,.15-.12c6.54-5.09,17.45-11.18,17.55-11.24l.4-.22,4.13,6.18-.49,.26c-9.28,4.91-15.66,7.38-19.05,7.38Zm-1.74-1.72c.02,.12,.1,.27,.29,.41,.89,.62,4.56,1.18,19.54-6.69l-3-4.49c-2,1.13-11.05,6.32-16.83,10.77Z"></path>
    </g>
    <g>
      <path d="M223.39,185.15l.84-1.27c1.02-1.54,3.03-2.08,4.68-1.25h0c1.68,.84,2.45,2.82,1.78,4.57l-.33,.87-6.97-2.93Z" fill="#ffc0c0"></path>
      <path d="M230.64,188.74l-8-3.36,1.17-1.77c1.16-1.75,3.45-2.36,5.32-1.42,1.92,.96,2.79,3.2,2.02,5.2l-.52,1.35Zm-6.5-3.82l5.94,2.49,.15-.39c.58-1.52-.08-3.22-1.54-3.95-1.43-.71-3.16-.25-4.04,1.08l-.51,.76Z"></path>
    </g>
    <path d="M242.76,193.79c-.05,0-.1,0-.16-.02-.26-.09-.41-.37-.32-.63l2.67-8.13c.09-.26,.37-.41,.63-.32,.26,.09,.41,.37,.32,.63l-2.67,8.13c-.07,.21-.27,.34-.48,.34Z"></path>
    <path d="M530.42,479.68s-.02,0-.03,0c-.28-.01-.49-.25-.47-.53,.02-.38,2.21-38.96,11.31-82.76,8.41-40.47,24.61-93.8,54.06-118.07,13.09-10.79,27.89-15.13,43.97-12.9,.27,.04,.46,.29,.43,.56-.04,.27-.3,.46-.56,.43-15.81-2.19-30.33,2.08-43.2,12.68-29.22,24.08-45.34,77.18-53.71,117.48-9.09,43.73-11.27,82.24-11.29,82.63-.01,.27-.24,.47-.5,.47Z"></path>
    <path d="M562.14,328.7c-.26,0-.47-.2-.5-.46-5.74-66.19,22.47-108.84,22.76-109.26,.16-.23,.47-.29,.69-.13,.23,.15,.29,.47,.13,.69-.28,.42-28.29,42.79-22.59,108.61,.02,.27-.18,.52-.46,.54-.01,0-.03,0-.04,0Z"></path>
    <g>
      <g>
        <rect x="501.78" y="235.72" width="322.88" height="177.91" rx="8.2" ry="8.2" fill="#fff"></rect>
        <path d="M816.46,414.14H509.98c-4.8,0-8.7-3.9-8.7-8.7V243.92c0-4.8,3.9-8.7,8.7-8.7h306.48c4.8,0,8.7,3.9,8.7,8.7v161.52c0,4.8-3.9,8.7-8.7,8.7ZM509.98,236.22c-4.24,0-7.7,3.45-7.7,7.7v161.52c0,4.24,3.45,7.7,7.7,7.7h306.48c4.24,0,7.7-3.45,7.7-7.7V243.92c0-4.24-3.45-7.7-7.7-7.7H509.98Z"></path>
      </g>
      <g>
        <rect x="514.96" y="235.72" width="322.88" height="177.91" rx="8.2" ry="8.2" fill="#009e64"></rect>
        <path d="M829.64,414.14h-306.48c-4.8,0-8.7-3.9-8.7-8.7V243.92c0-4.8,3.9-8.7,8.7-8.7h306.48c4.8,0,8.7,3.9,8.7,8.7v161.52c0,4.8-3.9,8.7-8.7,8.7Zm-306.48-177.91c-4.24,0-7.7,3.45-7.7,7.7v161.52c0,4.24,3.45,7.7,7.7,7.7h306.48c4.24,0,7.7-3.45,7.7-7.7V243.92c0-4.24-3.45-7.7-7.7-7.7h-306.48Z"></path>
      </g>
      <g>
        <rect x="582.32" y="278.19" width="176.45" height="103.97" rx="5.73" ry="5.73" fill="#009e64"></rect>
        <path d="M753.03,382.65h-164.98c-3.44,0-6.23-2.8-6.23-6.23v-92.5c0-3.44,2.8-6.23,6.23-6.23h164.98c3.44,0,6.23,2.8,6.23,6.23v92.5c0,3.44-2.8,6.23-6.23,6.23Zm-164.98-103.97c-2.89,0-5.23,2.35-5.23,5.23v92.5c0,2.89,2.35,5.23,5.23,5.23h164.98c2.89,0,5.23-2.35,5.23-5.23v-92.5c0-2.89-2.35-5.23-5.23-5.23h-164.98Z"></path>
      </g>
      <g>
        <path d="M763.16,450.24h-36.61v-36.61h-85.66v36.61h-56.38c-2.83,0-5.13,2.29-5.13,5.13s2.29,5.13,5.13,5.13h178.64c2.83,0,5.13-2.29,5.13-5.13s-2.29-5.13-5.13-5.13Z" fill="#009e64"></path>
        <path d="M763.16,460.99h-178.64c-3.1,0-5.62-2.52-5.62-5.62s2.52-5.62,5.62-5.62h55.88v-36.61h86.66v36.61h36.11c3.1,0,5.62,2.52,5.62,5.62s-2.52,5.62-5.62,5.62Zm-178.64-10.25c-2.55,0-4.62,2.07-4.62,4.62s2.08,4.62,4.62,4.62h178.64c2.55,0,4.62-2.07,4.62-4.62s-2.08-4.62-4.62-4.62h-37.11v-36.61h-84.66v36.61h-56.88Z"></path>
      </g>
      <g>
        <rect x="614.53" y="392.4" width="22.7" height="9.52"></rect>
        <path d="M637.73,402.42h-23.7v-10.52h23.7v10.52Zm-22.7-1h21.7v-8.52h-21.7v8.52Z"></path>
      </g>
      <g>
        <rect x="659.93" y="392.4" width="5.13" height="9.52"></rect>
        <path d="M665.55,402.42h-6.12v-10.52h6.12v10.52Zm-5.12-1h4.12v-8.52h-4.12v8.52Z"></path>
      </g>
      <g>
        <rect x="667.98" y="392.4" width="5.13" height="9.52"></rect>
        <path d="M673.61,402.42h-6.12v-10.52h6.12v10.52Zm-5.12-1h4.12v-8.52h-4.12v8.52Z"></path>
      </g>
      <g>
        <rect x="676.77" y="392.4" width="5.13" height="9.52"></rect>
        <path d="M682.39,402.42h-6.12v-10.52h6.12v10.52Zm-5.12-1h4.12v-8.52h-4.12v8.52Z"></path>
      </g>
      <g>
        <rect x="704.59" y="392.4" width="21.23" height="9.52"></rect>
        <path d="M726.32,402.42h-22.23v-10.52h22.23v10.52Zm-21.23-1h20.23v-8.52h-20.23v8.52Z"></path>
      </g>
      <g>
        <path d="M798.59,460.49h-272.19c-4.7,0-8.5,3.81-8.5,8.5v96.48c0,4.7,3.81,8.5,8.5,8.5h272.19c4.7,0,8.5-3.81,8.5-8.5v-96.48c0-4.7-3.81-8.5-8.5-8.5Zm-274.11,14.64h168.39v55.64h-168.39v-55.64Zm276.75,92.25h-276.75v-31.48h276.75v31.48Z" fill="#f7ce21"></path>
        <path d="M798.59,574.48h-272.19c-4.96,0-9-4.04-9-9v-96.48c0-4.96,4.04-9,9-9h272.19c4.96,0,9,4.04,9,9v96.48c0,4.96-4.04,9-9,9Zm-272.19-113.48c-4.41,0-8,3.59-8,8v96.48c0,4.41,3.59,8,8,8h272.19c4.41,0,8-3.59,8-8v-96.48c0-4.41-3.59-8-8-8h-272.19Zm275.34,106.89h-277.75v-32.48h277.75v32.48Zm-276.75-1h275.75v-30.48h-275.75v30.48Zm168.39-35.61h-169.39v-56.64h169.39v56.64Zm-168.39-1h167.39v-54.64h-167.39v54.64Z"></path>
      </g>
      <g>
        <rect x="524.48" y="475.14" width="64.43" height="55.64"></rect>
        <path d="M589.41,531.28h-65.43v-56.64h65.43v56.64Zm-64.43-1h63.43v-54.64h-63.43v54.64Z"></path>
      </g>
      <g>
        <rect x="524.48" y="498.57" width="146.43" height="32.21" fill="#9be4ba"></rect>
        <path d="M671.41,531.28h-147.43v-33.21h147.43v33.21Zm-146.43-1h145.43v-31.21h-145.43v31.21Z"></path>
      </g>
      <g>
        <circle cx="533.26" cy="503.69" r="1.46" fill="#f7ce21"></circle>
        <path d="M533.26,505.65c-1.08,0-1.96-.88-1.96-1.96s.88-1.96,1.96-1.96,1.96,.88,1.96,1.96-.88,1.96-1.96,1.96Zm0-2.93c-.53,0-.96,.43-.96,.96s.43,.96,.96,.96,.96-.43,.96-.96-.43-.96-.96-.96Z"></path>
      </g>
      <g>
        <circle cx="543.51" cy="503.69" r="1.46" fill="#009e64"></circle>
        <path d="M543.51,505.65c-1.08,0-1.96-.88-1.96-1.96s.88-1.96,1.96-1.96,1.96,.88,1.96,1.96-.88,1.96-1.96,1.96Zm0-2.93c-.53,0-.96,.43-.96,.96s.43,.96,.96,.96,.96-.43,.96-.96-.43-.96-.96-.96Z"></path>
      </g>
      <g>
        <circle cx="553.76" cy="503.69" r="1.46" fill="#fff"></circle>
        <path d="M553.76,505.65c-1.08,0-1.96-.88-1.96-1.96s.88-1.96,1.96-1.96,1.96,.88,1.96,1.96-.88,1.96-1.96,1.96Zm0-2.93c-.53,0-.96,.43-.96,.96s.43,.96,.96,.96,.96-.43,.96-.96-.43-.96-.96-.96Z"></path>
      </g>
      <g>
        <rect x="524.48" y="535.9" width="64.43" height="31.48"></rect>
        <path d="M589.41,567.89h-65.43v-32.48h65.43v32.48Zm-64.43-1h63.43v-30.48h-63.43v30.48Z"></path>
      </g>
      <g>
        <rect x="710.44" y="544.69" width="65.16" height="8.05" fill="#9be4ba"></rect>
        <path d="M776.11,553.24h-66.16v-9.05h66.16v9.05Zm-65.16-1h64.16v-7.05h-64.16v7.05Z"></path>
      </g>
      <path d="M763.16,549.22h-50.26c-.28,0-.5-.22-.5-.5s.22-.5,.5-.5h50.26c.28,0,.5,.22,.5,.5s-.22,.5-.5,.5Z" fill="#fff"></path>
      <g>
        <rect x="731.68" y="552.74" width="65.16" height="8.05" fill="#f7ce21"></rect>
        <path d="M797.34,561.3h-66.16v-9.05h66.16v9.05Zm-65.16-1h64.16v-7.05h-64.16v7.05Z"></path>
      </g>
      <path d="M784.39,557.27h-50.26c-.28,0-.5-.22-.5-.5s.22-.5,.5-.5h50.26c.28,0,.5,.22,.5,.5s-.22,.5-.5,.5Z"></path>
      <path d="M778.9,564.59h-49.16c-.28,0-.5-.22-.5-.5s.22-.5,.5-.5h49.16c.28,0,.5,.22,.5,.5s-.22,.5-.5,.5Z" fill="#ed1c24"></path>
      <g>
        <rect x="726.55" y="560.8" width="64.43" height="6.59" fill="#009e64"></rect>
        <path d="M791.48,567.89h-65.43v-7.59h65.43v7.59Zm-64.43-1h63.43v-5.59h-63.43v5.59Z"></path>
      </g>
      <g>
        <polygon points="763.16 573.98 769.02 584.96 778.34 584.96 775.61 573.98 763.16 573.98" fill="#fff"></polygon>
        <path d="M778.98,585.46h-10.27l-6.39-11.98h13.67l2.99,11.98Zm-9.67-1h8.39l-2.49-9.98h-11.22l5.32,9.98Z"></path>
      </g>
      <g>
        <polygon points="777.57 573.98 783.35 584.96 792.07 584.96 789.25 573.98 777.57 573.98" fill="#fff"></polygon>
        <path d="M792.72,585.46h-9.67l-6.3-11.98h12.89l3.08,11.98Zm-9.07-1h7.78l-2.57-9.98h-10.46l5.25,9.98Z"></path>
      </g>
      <g>
        <polygon points="557.78 573.98 551.93 584.96 542.6 584.96 545.34 573.98 557.78 573.98" fill="#fff"></polygon>
        <path d="M552.23,585.46h-10.27l2.99-11.98h13.67l-6.39,11.98Zm-8.99-1h8.39l5.32-9.98h-11.22l-2.49,9.98Z"></path>
      </g>
      <g>
        <polygon points="543.37 573.98 537.6 584.96 528.87 584.96 531.69 573.98 543.37 573.98" fill="#fff"></polygon>
        <path d="M537.9,585.46h-9.67l3.08-11.98h12.89l-6.3,11.98Zm-8.38-1h7.78l5.25-9.98h-10.46l-2.57,9.98Z"></path>
      </g>
      <g>
        <rect x="583.05" y="510.83" width="25.63" height="11.71" fill="#009e64"></rect>
        <path d="M609.18,523.04h-26.62v-12.71h26.62v12.71Zm-25.62-1h24.62v-10.71h-24.62v10.71Z"></path>
      </g>
      <g>
        <rect x="585.98" y="513.39" width="4.39" height="6.59"></rect>
        <path d="M590.87,520.48h-5.39v-7.59h5.39v7.59Zm-4.39-1h3.39v-5.59h-3.39v5.59Z"></path>
      </g>
      <g>
        <rect x="594.03" y="513.21" width="4.39" height="6.59"></rect>
        <path d="M598.93,520.3h-5.39v-7.59h5.39v7.59Zm-4.39-1h3.39v-5.59h-3.39v5.59Z"></path>
      </g>
      <g>
        <rect x="601.35" y="513.21" width="4.39" height="6.59"></rect>
        <path d="M606.25,520.3h-5.39v-7.59h5.39v7.59Zm-4.39-1h3.39v-5.59h-3.39v5.59Z"></path>
      </g>
      <path d="M590.37,310.9c-.28,0-.5-.22-.5-.5v-19.77c0-.28,.22-.5,.5-.5s.5,.22,.5,.5v19.77c0,.28-.22,.5-.5,.5Z"></path>
      <path d="M597.69,310.9c-.28,0-.5-.22-.5-.5v-19.77c0-.28,.22-.5,.5-.5s.5,.22,.5,.5v19.77c0,.28-.22,.5-.5,.5Z"></path>
      <path d="M590.37,340.19c-.28,0-.5-.22-.5-.5v-19.77c0-.28,.22-.5,.5-.5s.5,.22,.5,.5v19.77c0,.28-.22,.5-.5,.5Z"></path>
      <path d="M597.69,340.19c-.28,0-.5-.22-.5-.5v-19.77c0-.28,.22-.5,.5-.5s.5,.22,.5,.5v19.77c0,.28-.22,.5-.5,.5Z"></path>
      <path d="M590.37,370.21c-.28,0-.5-.22-.5-.5v-19.77c0-.28,.22-.5,.5-.5s.5,.22,.5,.5v19.77c0,.28-.22,.5-.5,.5Z"></path>
      <path d="M597.69,370.21c-.28,0-.5-.22-.5-.5v-19.77c0-.28,.22-.5,.5-.5s.5,.22,.5,.5v19.77c0,.28-.22,.5-.5,.5Z"></path>
      <path d="M824.66,258.92h-48.32c-.28,0-.5-.22-.5-.5s.22-.5,.5-.5h48.32c.28,0,.5,.22,.5,.5s-.22,.5-.5,.5Z"></path>
      <path d="M824.66,266.24h-48.32c-.28,0-.5-.22-.5-.5s.22-.5,.5-.5h48.32c.28,0,.5,.22,.5,.5s-.22,.5-.5,.5Z"></path>
      <path d="M824.66,274.3h-48.32c-.28,0-.5-.22-.5-.5s.22-.5,.5-.5h48.32c.28,0,.5,.22,.5,.5s-.22,.5-.5,.5Z"></path>
      <path d="M824.66,280.88h-48.32c-.28,0-.5-.22-.5-.5s.22-.5,.5-.5h48.32c.28,0,.5,.22,.5,.5s-.22,.5-.5,.5Z"></path>
      <path d="M824.66,288.21h-48.32c-.28,0-.5-.22-.5-.5s.22-.5,.5-.5h48.32c.28,0,.5,.22,.5,.5s-.22,.5-.5,.5Z"></path>
      <path d="M824.66,296.26h-48.32c-.28,0-.5-.22-.5-.5s.22-.5,.5-.5h48.32c.28,0,.5,.22,.5,.5s-.22,.5-.5,.5Z"></path>
      <path d="M824.66,353.37h-48.32c-.28,0-.5-.22-.5-.5s.22-.5,.5-.5h48.32c.28,0,.5,.22,.5,.5s-.22,.5-.5,.5Z"></path>
      <path d="M824.66,360.69h-48.32c-.28,0-.5-.22-.5-.5s.22-.5,.5-.5h48.32c.28,0,.5,.22,.5,.5s-.22,.5-.5,.5Z"></path>
      <path d="M824.66,368.74h-48.32c-.28,0-.5-.22-.5-.5s.22-.5,.5-.5h48.32c.28,0,.5,.22,.5,.5s-.22,.5-.5,.5Z"></path>
      <path d="M824.66,375.33h-48.32c-.28,0-.5-.22-.5-.5s.22-.5,.5-.5h48.32c.28,0,.5,.22,.5,.5s-.22,.5-.5,.5Z"></path>
      <path d="M824.66,382.65h-48.32c-.28,0-.5-.22-.5-.5s.22-.5,.5-.5h48.32c.28,0,.5,.22,.5,.5s-.22,.5-.5,.5Z"></path>
      <path d="M824.66,390.71h-48.32c-.28,0-.5-.22-.5-.5s.22-.5,.5-.5h48.32c.28,0,.5,.22,.5,.5s-.22,.5-.5,.5Z"></path>
      <path d="M605.52,553.27c-.34,0-.69,0-1.04-.02-.1,0-3.56,.12-7.26-3.41-4.02-3.84-8.82-12.61-8.82-32.6,0-.28,.22-.5,.5-.5s.5,.22,.5,.5c0,19.58,4.61,28.12,8.47,31.84,3.39,3.26,6.57,3.16,6.61,3.17,5.34,.26,9.75-1.5,13.17-5.21,12.61-13.65,8.78-49.54,7.88-56.59-.12-.97-.23-1.92-.32-2.89-3.72-40.82,.12-89.94,.16-90.43,.02-.28,.27-.48,.54-.46,.28,.02,.48,.26,.46,.54-.04,.49-3.87,49.53-.16,90.26,.09,.96,.2,1.9,.32,2.86,.91,7.13,4.77,43.42-8.14,57.4-3.41,3.69-7.73,5.55-12.88,5.55Z"></path>
      <path d="M633.25,563.96c-5.89,0-13.35-1.95-20.79-9.14-4.7-4.54-8.36-10.13-10.88-16.6-1.67-4.28-4.1-11.38-6.22-20.87-.06-.27,.11-.54,.38-.6,.28-.06,.54,.11,.6,.38,2.11,9.42,4.52,16.47,6.18,20.72,2.46,6.34,6.04,11.8,10.64,16.25,15.59,15.08,31.18,6.36,31.34,6.27,21.65-9.3,19.35-93.88,19.32-94.73l-1.83-65.32c0-.28,.21-.51,.49-.51,.26,0,.5,.21,.51,.49l1.83,65.32c.11,3.51,2.35,86.11-19.87,95.65-.06,.04-4.8,2.7-11.69,2.7Z"></path>
      <path d="M628.42,556.87c-8.42,0-16.95-13.53-25.35-40.22-.08-.26,.06-.54,.33-.63,.26-.08,.54,.06,.63,.33,8.35,26.53,16.68,39.84,24.66,39.51,12.25-.47,19.98-33.1,20.06-33.43,8.24-44.3,21.18-124.54,21.31-125.35,.04-.27,.3-.46,.57-.41,.27,.04,.46,.3,.41,.57-.13,.81-13.07,81.06-21.31,125.39-.32,1.4-7.99,33.73-21,34.23-.1,0-.2,0-.3,0Z"></path>
      <path d="M780.73,564.59h-50.26c-.28,0-.5-.22-.5-.5s.22-.5,.5-.5h50.26c.28,0,.5,.22,.5,.5s-.22,.5-.5,.5Z" fill="#fff"></path>
    </g>
    <g>
      <path d="M290.6,171.7s-4.47-14.19,1.71-18.82c0,0,.38,5.89,2.55,9.41l-4.27,9.41Z"></path>
      <path d="M290.51,173.1l-.39-1.25c-.19-.59-4.51-14.58,1.89-19.37l.74-.55,.06,.92c0,.06,.4,5.81,2.48,9.18l.14,.23-4.92,10.84Zm1.39-19.2c-3.85,3.98-2.05,12.96-1.19,16.34l3.59-7.92c-1.59-2.74-2.19-6.61-2.4-8.42Z"></path>
    </g>
    <g>
      <path d="M322.52,172.45l-6.91,12.1s23.82-11.27,21.66-20.13c0,0-1.26,1.13-3.91-.57l-3.12,3.4s-3.45,3.78-7.72,5.2Z"></path>
      <path d="M314.39,185.68l7.8-13.64,.18-.06c4.09-1.36,7.47-5.03,7.5-5.06l3.41-3.71,.35,.23c2.25,1.44,3.27,.64,3.31,.61l.61-.5,.2,.76c2.24,9.15-20.94,20.23-21.93,20.7l-1.44,.68Zm8.47-12.82l-6,10.5c4.95-2.54,20.71-11.19,20.03-18.21-.67,.21-1.82,.27-3.44-.67l-2.84,3.1c-.14,.15-3.5,3.79-7.74,5.27Z"></path>
    </g>
    <path d="M313.14,192.67c-.19,0-.37-.11-.45-.29-.12-.25-.01-.55,.24-.67,12.23-5.76,24.02-16.64,24.14-16.75,.2-.19,.52-.18,.71,.03,.19,.2,.18,.52-.03,.71-.12,.11-12.02,11.1-24.4,16.93-.07,.03-.14,.05-.21,.05Z"></path>
    <path d="M340.23,184.62c-.08,0-.17-.02-.24-.06l-7.97-4.39c-.24-.13-.33-.44-.2-.68,.13-.24,.44-.33,.68-.2l7.97,4.39c.24,.13,.33,.44,.2,.68-.09,.17-.26,.26-.44,.26Z"></path>
    <path d="M286.9,182.42c-.23,0-.44-.16-.49-.4-1.33-6.52-3.03-15.29-3.05-15.38-.05-.27,.12-.53,.4-.59,.25-.05,.53,.12,.59,.4,.02,.09,1.72,8.86,3.05,15.37,.05,.27-.12,.53-.39,.59-.03,0-.07,.01-.1,.01Z"></path>
    <g>
      <path d="M295.51,160.68l-6.54,14.65s7.32,9.52,25.63,10.98l8.79-15.38-27.87-10.26Z" fill="#ffc0c0"></path>
      <path d="M314.88,186.84l-.32-.03c-18.31-1.47-25.68-10.78-25.98-11.18l-.18-.24,6.85-15.35,28.87,10.63-9.24,16.16Zm-25.32-11.59c1.24,1.42,8.7,9.16,24.77,10.54l8.33-14.59-26.88-9.89-6.22,13.94Z"></path>
    </g>
    <g>
      <path d="M346.55,134.4c0,3.74-.95,7.53-2.96,11l-2.8,4.85-7.37,12.77c-.11,.19-.22,.38-.34,.56-6.24,10.1-19.41,13.47-29.75,7.5-8.99-5.18-12.94-15.75-10.13-25.28,.48-1.64,1.17-3.26,2.06-4.8l4.59-7.96,5.58-9.66c6.08-10.54,19.56-14.15,30.09-8.06,7.07,4.08,11.02,11.48,11.02,19.09Z" fill="#ffc0c0"></path>
      <path d="M314.39,174.57c-3.84,0-7.73-.99-11.31-3.06-9.05-5.22-13.31-15.85-10.36-25.86,.5-1.71,1.21-3.36,2.11-4.91l10.17-17.62c3.01-5.21,7.87-8.94,13.68-10.5,5.81-1.56,11.88-.76,17.09,2.25,6.95,4.01,11.27,11.49,11.27,19.52,0,3.93-1.05,7.82-3.03,11.25l-10.17,17.62c-.11,.2-.23,.39-.35,.58-4.27,6.91-11.58,10.72-19.11,10.72Zm10.15-61.71c-1.87,0-3.75,.25-5.6,.74-5.55,1.49-10.2,5.05-13.07,10.03l-10.17,17.62c-.86,1.49-1.54,3.06-2.02,4.69-2.82,9.56,1.25,19.72,9.9,24.71,10.15,5.86,22.92,2.64,29.08-7.33,.12-.18,.22-.37,.33-.55l10.17-17.62c1.89-3.27,2.89-6.99,2.89-10.75,0-7.67-4.13-14.82-10.77-18.65-3.32-1.92-7-2.9-10.73-2.9Z"></path>
    </g>
    <g>
      <path d="M292.31,133.81s-3.33-9.73,4.72-13.39c0,0-5.13-14.64,11.71-15.38,0,0-.6-9.33,10.68-3.57,0,0,12.75-10.34,23,4.3,0,0,18.3,2.2,10.98,12.45,0,0,12.45,6.59,0,17.57,0,0,2.39,14.4-6.86,11.96,0,0,1.17,3.57-1.11,6.05l-4.65-3.56,3.91-7.05s-4.47-8.13-4.47-14.72c0,0-10.86,2.04-14.95-10.69,0,0-6.42,2.41-13.31-1.5,0,0-3.26,2-6.54,7.1l-8.01,13.87-5.12-3.44Z"></path>
      <path d="M345.49,154.48l-5.35-4.1,3.99-7.19c-.74-1.39-4.18-8.2-4.39-14.16-2.33,.2-11.05,.19-14.77-10.63-1.64,.48-7.08,1.67-12.96-1.54-.8,.56-3.47,2.63-6.14,6.78l-8.27,14.32-5.7-3.84-.05-.16c-.03-.1-3.27-9.88,4.59-13.82-.44-1.52-1.62-6.66,1.11-10.69,1.99-2.94,5.59-4.58,10.71-4.89,.03-1.05,.32-3.46,2.23-4.72,1.95-1.28,4.94-.93,8.9,1.04,1.17-.87,6.07-4.16,12.02-3.33,4.28,.6,8.09,3.21,11.32,7.75,1.56,.22,10.41,1.64,12.49,6.35,.84,1.9,.47,4.05-1.08,6.4,1.3,.81,4.78,3.34,5.26,7.38,.4,3.39-1.43,6.94-5.44,10.54,.21,1.5,1.01,8.49-2.13,11.34-1.16,1.06-2.71,1.42-4.6,1.09,.23,1.27,.37,3.78-1.41,5.73l-.31,.34Zm-4.06-4.37l3.92,3.01c1.65-2.21,.72-5.18,.71-5.21l-.28-.87,.88,.23c1.91,.5,3.41,.27,4.47-.68,3.04-2.77,1.79-10.63,1.77-10.71l-.04-.27,.21-.18c3.89-3.43,5.68-6.75,5.32-9.85-.51-4.35-5.17-6.88-5.22-6.9l-.5-.27,.33-.46c1.59-2.22,2.02-4.2,1.28-5.87-2.01-4.55-11.82-5.78-11.92-5.79l-.22-.03-.13-.18c-3.09-4.41-6.71-6.94-10.75-7.51-6.26-.88-11.47,3.27-11.52,3.31l-.25,.2-.29-.15c-3.7-1.89-6.52-2.32-8.17-1.24-1.95,1.27-1.79,4.3-1.78,4.33l.03,.51-.51,.02c-5.04,.22-8.54,1.72-10.4,4.47-2.89,4.26-.88,10.18-.86,10.24l.15,.43-.42,.19c-7.01,3.19-4.87,11.39-4.5,12.62l4.53,3.05,7.74-13.41c3.32-5.15,6.57-7.19,6.71-7.27l.25-.15,.26,.15c6.59,3.74,12.82,1.49,12.89,1.47l.49-.18,.16,.5c3.9,12.15,13.95,10.43,14.38,10.35l.59-.11v.6c0,6.38,4.37,14.4,4.41,14.48l.13,.24-3.84,6.92Z"></path>
    </g>
    <g>
      <path d="M299.86,133.03l-4.59,7.96c-.89,1.54-1.58,3.16-2.06,4.8-1.23-1.53-2.03-3.97-2.03-6.71,0-4.65,2.29-8.42,5.13-8.42,1.39,0,2.64,.9,3.56,2.36Z" fill="#ffc0c0"></path>
      <path d="M293.41,146.85l-.6-.75c-1.36-1.69-2.14-4.25-2.14-7.02,0-5,2.47-8.92,5.62-8.92,1.51,0,2.93,.92,3.98,2.6l.16,.26-4.74,8.22c-.86,1.49-1.54,3.06-2.02,4.69l-.27,.92Zm2.89-15.69c-2.55,0-4.62,3.55-4.62,7.92,0,2.09,.5,4.11,1.36,5.58,.47-1.36,1.07-2.68,1.8-3.93l4.44-7.69c-.84-1.22-1.89-1.88-2.97-1.88Z"></path>
    </g>
    <g>
      <path d="M342.69,160.68c-2.99,3.57-7.16,4.99-9.33,3.17-.1-.08-.19-.17-.28-.27,.12-.18,.23-.37,.34-.56l7.37-12.77c1.31-.25,2.5-.04,3.38,.69,2.17,1.82,1.51,6.18-1.47,9.74Z" fill="#ffc0c0"></path>
      <path d="M335.74,165.15c-1.03,0-1.96-.3-2.71-.92-.12-.1-.23-.21-.34-.33l-.24-.28,.2-.31c.11-.18,.22-.36,.32-.54l7.49-12.97,.22-.04c1.52-.29,2.83-.01,3.79,.8,2.38,1.99,1.74,6.68-1.41,10.45h0c-2.22,2.65-5.02,4.15-7.33,4.15Zm-2.03-1.65c1.96,1.59,5.81,.19,8.59-3.14,2.8-3.35,3.49-7.4,1.53-9.04-.84-.71-1.91-.74-2.74-.62l-7.26,12.56c-.04,.08-.09,.15-.13,.23Z"></path>
    </g>
    <g>
      <path d="M231.14,212.67c5.86-1.46,3.66-5.13,3.66-5.13,7.63-6.93-9.03-8.61-10.83-8.77-.05,0-.05-.07,0-.09,9.88-5.11-13.33-11.64-13.33-11.64-10.98-1.46-7.32,6.59-7.32,6.59-5.13,2.2-2.93,8.05-2.93,8.05-5.13,2.93-2.16,8.79-2.16,8.79,0,0-2.54,8.79,14.82,8.79,0,0,8.15,1.25,8.36-1.94h5.56c2.03,0,3.74-1.5,4.01-3.51l.15-1.14Z" fill="#ffc0c0"></path>
      <path d="M216.36,220c-1.75,0-3.27-.23-3.39-.25h-.04c-7.12,0-11.88-1.49-14.08-4.41-1.56-2.07-1.28-4.17-1.15-4.81-.44-1.01-2.42-6.18,2.09-9.06-.39-1.38-1.3-5.97,2.89-8.08-.35-.99-.96-3.35,.34-5.09,1.24-1.67,3.82-2.25,7.69-1.74,1.67,.46,15.73,4.55,16.19,9.11,.1,1-.42,1.93-1.54,2.76,3.36,.41,10.69,1.66,11.78,4.93,.45,1.32-.14,2.77-1.73,4.32,.22,.53,.51,1.57,.05,2.67-.52,1.25-1.82,2.17-3.87,2.74l-.11,.81c-.3,2.25-2.24,3.94-4.51,3.94h-5.14c-.12,.43-.38,.8-.77,1.11-1.05,.85-2.99,1.06-4.7,1.06Zm-8.14-32.64c-2.14,0-3.65,.51-4.4,1.52-1.29,1.74-.06,4.52-.05,4.55l.21,.46-.47,.2c-4.62,1.98-2.74,7.2-2.66,7.42l.15,.4-.37,.21c-4.66,2.66-2.08,7.9-1.96,8.13l.09,.18-.05,.19c-.02,.08-.57,2.12,.96,4.14,1.38,1.83,4.83,4,13.38,4,1.61,.24,5.91,.59,7.39-.6,.3-.24,.45-.52,.47-.87l.03-.47h6.03c1.77,0,3.28-1.32,3.52-3.08l.2-1.48,.33-.08c1.89-.47,3.11-1.25,3.52-2.24,.45-1.09-.16-2.13-.17-2.14l-.21-.35,.3-.28c1.48-1.35,2.06-2.53,1.73-3.51-.9-2.69-8.14-4.03-12.27-4.39l-.37-.03-.18-.77,.36-.23c1.52-.79,2.25-1.62,2.17-2.48-.34-3.3-11.23-7.06-15.4-8.24-.82-.11-1.58-.16-2.28-.16Z"></path>
    </g>
    <path d="M223.82,199.26s-.08,0-.12-.02l-20.5-5.13c-.27-.07-.43-.34-.36-.61,.07-.27,.34-.43,.61-.36l20.5,5.13c.27,.07,.43,.34,.36,.61-.06,.23-.26,.38-.49,.38Z"></path>
    <path d="M234.8,208.05s-.06,0-.08,0l-34.41-5.86c-.27-.05-.46-.3-.41-.58,.05-.27,.31-.45,.58-.41l34.41,5.86c.27,.05,.46,.3,.41,.58-.04,.24-.25,.42-.49,.42Z"></path>
    <path d="M231.14,213.17s-.02,0-.03,0l-32.91-2.2c-.28-.02-.48-.26-.47-.53,.02-.28,.26-.48,.53-.47l32.91,2.2c.28,.02,.48,.26,.47,.53-.02,.26-.24,.47-.5,.47Z"></path>
    <path d="M221.41,217.82s-.04,0-.06,0l-21.75-2.45c-.27-.03-.47-.28-.44-.55,.03-.28,.29-.47,.55-.44l21.75,2.45c.27,.03,.47,.28,.44,.55-.03,.26-.25,.44-.5,.44Z"></path>
    <g>
      <path d="M286.78,257.33l-14.42-9.62c-1.78-1.19-3.88-1.84-6.03-1.81-1.24,.02-2.84-.07-4.7-.42-3.06-.58-5.96-1.79-8.6-3.44l-10.12-6.29c-1.52-.95-1.77-3.07-.5-4.34h0c.72-.72,1.79-.99,2.77-.7l5.73,1.72s-12.04-8.27-9.31-15.12c0,0-2.4-8.31,5.65-6.85,0,0-1.46-7.32,8.05-3.66l10.25,5.86s2.06,1.03,4.02,.5c.63-.17,.95-.88,.72-1.49l-2.39-6.22c-.56-1.46-1.74-2.59-3.22-3.08l-3.02-1.01c-.5-.17-.52-.87-.02-1.06,1.81-.7,5.64-1.23,11.24,2.84l2.32,.58c2.18,.54,3.87,2.25,4.39,4.43l3.54,14.76,10.98,9.52s.73,15.38-7.32,24.89Z" fill="#ffc0c0"></path>
      <path d="M286.87,258l-14.8-9.86c-1.74-1.16-3.74-1.77-5.74-1.73-1.55,.02-3.17-.12-4.8-.43-2.99-.57-5.94-1.75-8.77-3.5l-10.12-6.29c-.86-.53-1.42-1.41-1.53-2.42s.23-1.99,.94-2.7c.86-.86,2.11-1.17,3.27-.82l3.11,.93c-3.39-2.8-9.3-8.62-7.36-13.88-.2-.8-.91-4.18,.86-6.14,1.01-1.12,2.6-1.54,4.75-1.27-.05-.95,.05-2.64,1.31-3.7,1.47-1.24,3.99-1.18,7.5,.17l10.32,5.89h0s1.9,.92,3.65,.45c.15-.04,.28-.15,.35-.3,.08-.17,.09-.36,.03-.54l-2.39-6.22c-.51-1.32-1.57-2.34-2.92-2.79l-3.02-1.01c-.43-.14-.71-.53-.73-.98-.01-.45,.26-.85,.68-1.02,1.88-.72,5.88-1.31,11.64,2.85l2.22,.56c2.36,.59,4.19,2.43,4.76,4.8l3.5,14.6,11.02,9.55v.21c.04,.64,.66,15.68-7.43,25.24l-.29,.34Zm-20.39-12.59c2.16,0,4.29,.65,6.15,1.9l14.05,9.37c7.04-8.67,6.97-22.15,6.93-23.99l-10.94-9.48-3.58-14.91c-.48-2.01-2.02-3.56-4.03-4.06l-2.49-.66c-5.43-3.94-9.08-3.44-10.77-2.78v.12s3.03,1.01,3.03,1.01c1.63,.54,2.92,1.77,3.53,3.37l2.39,6.22c.17,.44,.14,.93-.07,1.35-.21,.41-.56,.69-.99,.81-2.12,.58-4.29-.49-4.38-.53l-10.27-5.87c-3.03-1.16-5.27-1.27-6.42-.31-1.33,1.12-.9,3.42-.9,3.44l.14,.72-.72-.13c-2.12-.38-3.62-.1-4.49,.86-1.6,1.77-.6,5.33-.59,5.36l.05,.16-.06,.16c-2.55,6.4,9.02,14.44,9.13,14.52l2.63,1.81-8.79-2.64c-.81-.24-1.68-.02-2.27,.57-.5,.5-.74,1.18-.66,1.88,.08,.7,.47,1.31,1.06,1.68l10.12,6.29c2.72,1.69,5.56,2.82,8.43,3.37,1.57,.3,3.11,.44,4.6,.42,.05,0,.11,0,.16,0Z"></path>
    </g>
    <path d="M261.89,244.65c-.24,0-.45-.17-.49-.42-.05-.27,.14-.53,.41-.58,.16-.03,3.9-.73,3.25-5.29-.03-.24,.11-.47,.33-.54,.16-.06,4-1.43,3.33-6.79-.03-.2,.08-.4,.25-.5,.25-.14,6.14-3.55,2.72-11.07-.11-.25,0-.55,.25-.66,.25-.11,.55,0,.66,.25,3.35,7.37-1.58,11.31-2.85,12.18,.48,4.9-2.56,6.84-3.65,7.38,.53,5.21-4.07,6.03-4.12,6.04-.03,0-.06,0-.08,0Z"></path>
    <path d="M254.57,228.55c-.08,0-.15-.02-.22-.05-7.34-3.67-12.91-10.57-13.14-10.86-.17-.22-.14-.53,.08-.7,.21-.17,.53-.14,.7,.08,.06,.07,5.67,7.02,12.81,10.59,.25,.12,.35,.42,.22,.67-.09,.18-.26,.28-.45,.28Z"></path>
    <path d="M259.69,221.22c-.06,0-.12-.01-.19-.04-7.38-2.95-12.46-10.12-12.67-10.43-.16-.23-.1-.54,.12-.7,.23-.16,.54-.1,.7,.12,.05,.07,5.13,7.24,12.22,10.07,.26,.1,.38,.39,.28,.65-.08,.2-.27,.31-.46,.31Z"></path>
    <g>
      <path d="M199.73,215.6s-1.1,5.81,.3,9.66c.78,2.15,3.22,3.14,5.3,2.2,2.3-1.05,5.6-3.32,7.68-8.11,.02-.04-.01-.08-.05-.08-.94,.06-9.02,.47-13.23-3.67Z"></path>
      <path d="M203.68,228.31c-.58,0-1.17-.11-1.71-.34-1.14-.48-1.99-1.38-2.41-2.54-1.43-3.94-.37-9.68-.32-9.92l.17-.92,.67,.66c4.05,3.98,11.96,3.59,12.84,3.52l.28-.02,.37,.48-.1,.31c-2.13,4.9-5.49,7.25-7.93,8.36-.59,.27-1.22,.4-1.85,.4Zm-3.6-11.73c-.24,1.75-.6,5.7,.42,8.5,.32,.89,.99,1.59,1.86,1.96,.88,.37,1.88,.35,2.76-.05,2.18-.99,5.13-3.04,7.13-7.2-2.2,.06-8.3-.1-12.17-3.21Z"></path>
    </g>
    <g>
      <path d="M319.03,455.74s-2.23-1.46-2.23-5.13c0,0,.89-3.62,3.74-5.47l-1.51,10.59Z"></path>
      <path d="M319.41,456.59l-.66-.43c-.1-.07-2.45-1.66-2.45-5.54v-.12c.05-.16,.99-3.83,3.97-5.77l.92-.6-1.78,12.46Zm-2.11-5.91c.02,2.08,.79,3.37,1.37,4.04l1.2-8.41c-1.76,1.66-2.46,3.98-2.57,4.37Z"></path>
    </g>
  </g>
  <g>
    <path d="M317.91,133.35c-.21,0-.4-.13-.47-.33-1.32-3.73-5.46-3.58-5.63-3.57-.28,.02-.51-.2-.52-.47-.01-.28,.2-.51,.47-.52,.05,0,5.06-.21,6.63,4.23,.09,.26-.04,.55-.3,.64-.06,.02-.11,.03-.17,.03Z"></path>
    <path d="M339.2,145.92c-.21,0-.4-.13-.47-.33-1.32-3.73-5.46-3.58-5.63-3.56-.28,.01-.51-.2-.52-.47-.01-.28,.2-.51,.47-.52,.05,0,5.06-.22,6.63,4.23,.09,.26-.04,.55-.3,.64-.06,.02-.11,.03-.17,.03Z"></path>
    <ellipse cx="312.34" cy="136.69" rx="2.99" ry="1.8" transform="translate(29.39 326.9) rotate(-57.55)"></ellipse>
    <ellipse cx="331.18" cy="148.03" rx="2.99" ry="1.8" transform="translate(28.55 348.05) rotate(-57.55)"></ellipse>
    <path d="M319.45,155.66c-.07,0-.15,0-.22-.02-2.6-.37-4.37-1.91-4.98-4.35-.07-.27,.09-.54,.36-.61,.28-.07,.54,.1,.61,.36,.66,2.59,2.62,3.39,4.15,3.61,.2,.03,.39-.04,.53-.2,.14-.16,.19-.37,.14-.57-1.19-4.62,1.38-10.69,1.49-10.95,.11-.25,.4-.37,.66-.26,.25,.11,.37,.4,.26,.66-.03,.06-2.54,6.02-1.44,10.3,.14,.53,0,1.08-.36,1.49-.31,.34-.74,.53-1.19,.53Z"></path>
    <path d="M315.72,161.48s-.02,0-.03,0c-9.07-.59-9.49-8.88-9.5-8.97,0-.28,.2-.51,.48-.52,.25-.02,.51,.2,.52,.48,.01,.31,.4,7.48,8.56,8.01,.28,.02,.48,.26,.47,.53-.02,.26-.24,.47-.5,.47Z"></path>
  </g>
</svg>
